<svg width="200" height="41" viewBox="0 0 200 41" fill="none" xmlns="http://www.w3.org/2000/svg">
<g clip-path="url(#clip0)">
<path d="M114.05 39.42V1.04001H145.69V12.26H128.13V15.73H140.82V24.78H128.13V28.19H145.69V39.42H114.05Z" fill="#F2A900"/>
<path d="M175 39.42L161.32 21.77V39.42H148.04V1.04H163.51L177.2 17.96V1.04H189.26V39.42H175ZM41.57 39.42V1.04H55.65V27.51H73.19V39.42H41.57ZM94.72 40.36C86.6 40.36 79.44 38.04 74.55 33.83L74.29 33.61L81.66 24.97L81.93 25.17C85.77 28.05 90.4 29.58 95.32 29.58C97.3 29.58 98.3 29.15 98.3 28.28V28.17C98.3 27.41 97.49 26.84 93.19 25.99C89.25 25.2 84.8 24.13 81.61 22.18C78.19 20.08 76.52 17.2 76.52 13.37V13.26C76.52 9.46 78.03 6.2 80.87 3.83C83.86 1.34 88.18 0.03 93.36 0.03C100.81 0.03 106.46 1.72 111.12 5.34L111.38 5.54L104.65 14.71L104.37 14.51C101.08 12.16 96.9 10.81 92.91 10.81C92.16 10.81 90.43 10.93 90.43 12.05V12.16C90.43 12.91 91.25 13.52 95.31 14.28C101.07 15.32 104.82 16.56 107.47 18.29C110.65 20.37 112.2 23.2 112.2 26.95V27.06C112.2 31.09 110.54 34.46 107.4 36.81C104.34 39.14 99.95 40.36 94.72 40.36ZM21.69 40.33C15.77 40.33 10.32 38.37 6.35 34.8C2.25 31.14 0 25.98 0 20.28V20.17C0 8.67 9.16 0 21.31 0C27.56 0 32.99 1.96 37.45 5.84L37.69 6.05L30.15 15.14L29.9 14.92C27.33 12.74 24.64 11.68 21.69 11.68C16.94 11.68 13.48 15.31 13.48 20.32V20.43C13.48 25.58 17.08 29.18 22.23 29.18C24.04 29.18 25.23 28.96 26.25 28.44V25.16H19.73V16.35H38.81V34.44L38.69 34.54C34.12 38.28 28.08 40.33 21.69 40.33Z" fill="#63666A"/>
<path d="M197.88 6.76C197.87 6.74 197.87 6.74 197.87 6.72L197.86 6.67C197.842 6.6395 197.832 6.60523 197.83 6.57C197.83 6.55 197.82 6.53 197.82 6.51C197.82 6.43 197.81 6.36 197.8 6.33C197.76 5.65 197.67 5.32 197.5 5.2C197.45 5.15 197.4 5.11 197.38 5.08C197.39 5.06 197.4 5.04 197.43 5.01C197.73 4.71 197.82 4.52 197.82 4.18C197.82 3.4 197.27 2.97 196.27 2.97H194.36V6.96H195.42V5.47H196.02C196.62 5.47 196.7 5.55 196.75 6.28C196.77 6.63 196.79 6.75 196.9 6.9L196.93 6.94H197.94L197.89 6.8C197.9 6.79 197.89 6.77 197.88 6.76ZM196.06 4.63H195.42V3.83H196.11C196.72 3.83 196.77 4.03 196.77 4.22C196.77 4.42 196.71 4.63 196.06 4.63Z" fill="#63666A"/>
<path d="M196.04 1.07999C193.85 1.07999 192.06 2.83999 192.06 4.99999C192.06 7.16999 193.84 8.93999 196.04 8.93999C198.22 8.93999 200 7.16999 200 4.99999C200 2.83999 198.22 1.07999 196.04 1.07999ZM196.04 7.93999C194.41 7.93999 193.09 6.61999 193.09 5.00999C193.09 3.38999 194.41 2.07999 196.04 2.07999C197.66 2.07999 198.97 3.39999 198.97 5.00999C198.97 6.61999 197.66 7.93999 196.04 7.93999Z" fill="#63666A"/>
</g>
<defs>
<clipPath id="clip0">
<rect width="200" height="40.36" fill="white"/>
</clipPath>
</defs>
</svg>
